<?xml version="1.0" encoding="UTF-8" standalone="no"?>
<svg
   xmlns:dc="http://purl.org/dc/elements/1.1/"
   xmlns:cc="http://creativecommons.org/ns#"
   xmlns:rdf="http://www.w3.org/1999/02/22-rdf-syntax-ns#"
   xmlns:svg="http://www.w3.org/2000/svg"
   xmlns="http://www.w3.org/2000/svg"
   xmlns:sodipodi="http://sodipodi.sourceforge.net/DTD/sodipodi-0.dtd"
   xmlns:inkscape="http://www.inkscape.org/namespaces/inkscape"
   version="1.1"
   x="0px"
   y="0px"
   viewBox="0 0 76.387313 99.999001"
   enable-background="new 0 0 76.388 100"
   xml:space="preserve"
   id="svg2"
   inkscape:version="0.91 r13725"
   sodipodi:docname="hand.svg"
   width="76.387314"
   height="99.999001"><metadata
     id="metadata14"><rdf:RDF><cc:Work
         rdf:about=""><dc:format>image/svg+xml</dc:format><dc:type
           rdf:resource="http://purl.org/dc/dcmitype/StillImage" /><dc:title></dc:title></cc:Work></rdf:RDF></metadata><defs
     id="defs12" /><sodipodi:namedview
     pagecolor="#ffffff"
     bordercolor="#666666"
     borderopacity="1"
     objecttolerance="10"
     gridtolerance="10"
     guidetolerance="10"
     inkscape:pageopacity="0"
     inkscape:pageshadow="2"
     inkscape:window-width="1101"
     inkscape:window-height="1020"
     id="namedview10"
     showgrid="false"
     fit-margin-top="0"
     fit-margin-left="0"
     fit-margin-right="0"
     fit-margin-bottom="0"
     inkscape:zoom="3.776"
     inkscape:cx="40.773993"
     inkscape:cy="48.355159"
     inkscape:window-x="577"
     inkscape:window-y="28"
     inkscape:window-maximized="0"
     inkscape:current-layer="svg2" /><path
     d="m 76.387317,60.283 -0.082,-22.954 c 0,0 0.082,-6.308 -3.566,-6.308 -4.062,0 -4.495,5.864 -4.495,5.864 l -0.729,5.682 c 0,0.44 -0.401,2.4 -1.951,2.4 -1.325,0 -1.973,-0.933 -2.116,-2.4 l -0.687,-11.351 c 0,-2.189 -1.369,-5.454 -4.396,-5.454 -3.229,0 -4.305,3.675 -4.305,5.454 l -0.981,11.742 c 0,0 -0.098,2.152 -1.903,2.005 -0.004,0 -0.006,0.003 -0.01,0.003 -1.322,0 -1.998,-1.073 -1.998,-2.4 l -0.685,-12.598 c 0,-2.654 -1.224,-6.775 -4.515,-6.775 -3.309,0 -4.481,4.121 -4.481,6.775 l -0.78,12.989 c 0,1.324 -0.605,2.002 -1.923,2.005 l -0.009,0.004 c -1.323,0 -2.091,-0.768 -2.091,-2.094 l -0.305,-11.054 -0.492,-25.455 c 0,-2.651 -0.95,-6.363 -4.305,-6.363 -3.652,0 -4.266,3.671 -4.654,6.17 l -3.52,56.759 -5.259,-13.252 -4.898,-5.421 c 0,0 -2.8970003,-3.339 -6.1180003,-4.235 -1.58,-0.44 -3.618,-0.476 -4.80599999,1.077 -1.125,1.468 1.01099999,5.657 1.01099999,5.657 l 3.233,5.865 c 2.637,5.04 6.2860003,12.674 8.6240003,20.294 l 0.043,-0.011 c 6.108,16.628 15.3,27.066 15.3,27.066 0,0 4.037,0.027 13.299,0.03 l 0,0 20.926,0 c 13.624,-18.882 13.624,-39.716 13.624,-39.716 l 0,0 z"
     id="path4"
     inkscape:connector-curvature="0"
     style="fill:#010101" /></svg>