<?xml version="1.0" encoding="UTF-8" standalone="no"?>
<svg
   xmlns:dc="http://purl.org/dc/elements/1.1/"
   xmlns:cc="http://creativecommons.org/ns#"
   xmlns:rdf="http://www.w3.org/1999/02/22-rdf-syntax-ns#"
   xmlns:svg="http://www.w3.org/2000/svg"
   xmlns="http://www.w3.org/2000/svg"
   xmlns:sodipodi="http://sodipodi.sourceforge.net/DTD/sodipodi-0.dtd"
   xmlns:inkscape="http://www.inkscape.org/namespaces/inkscape"
   version="1.1"
   width="20"
   height="10"
   viewBox="0 0 20 10"
   id="svg2"
   inkscape:version="0.91 r13725"
   sodipodi:docname="ic_alphabetical.svg">
  <metadata
     id="metadata10">
    <rdf:RDF>
      <cc:Work
         rdf:about="">
        <dc:format>image/svg+xml</dc:format>
        <dc:type
           rdf:resource="http://purl.org/dc/dcmitype/StillImage" />
        <dc:title></dc:title>
      </cc:Work>
    </rdf:RDF>
  </metadata>
  <defs
     id="defs8" />
  <sodipodi:namedview
     pagecolor="#ffffff"
     bordercolor="#666666"
     borderopacity="1"
     objecttolerance="10"
     gridtolerance="10"
     guidetolerance="10"
     inkscape:pageopacity="0"
     inkscape:pageshadow="2"
     inkscape:window-width="1101"
     inkscape:window-height="1020"
     id="namedview6"
     showgrid="false"
     fit-margin-top="0"
     fit-margin-left="0"
     fit-margin-right="0"
     fit-margin-bottom="0"
     inkscape:zoom="9.8333333"
     inkscape:cx="-7.7966102"
     inkscape:cy="5"
     inkscape:window-x="577"
     inkscape:window-y="28"
     inkscape:window-maximized="0"
     inkscape:current-layer="svg2" />
  <path
     d="m 4,4 a 2,2 0 0 1 2,2 l 0,4 -4,0 A 2,2 0 0 1 0,8 L 0,6 A 2,2 0 0 1 2,4 L 4,4 M 2,6 2,8 4,8 4,6 2,6 m 16,0 0,2 2,0 0,2 -2,0 A 2,2 0 0 1 16,8 l 0,-2 a 2,2 0 0 1 2,-2 l 2,0 0,2 -2,0 m -8,-6 0,4 2,0 a 2,2 0 0 1 2,2 l 0,2 a 2,2 0 0 1 -2,2 l -2,0 A 2,2 0 0 1 8,8 l 0,-8 2,0 m 0,8 2,0 0,-2 -2,0 0,2 z"
     id="path4"
     inkscape:connector-curvature="0" />
</svg>
