<?xml version="1.0" encoding="utf-8"?><!DOCTYPE svg PUBLIC "-//W3C//DTD SVG 1.1//EN" "http://www.w3.org/Graphics/SVG/1.1/DTD/svg11.dtd"><svg version="1.1" xmlns="http://www.w3.org/2000/svg" xmlns:xlink="http://www.w3.org/1999/xlink" x="0px" y="0px" viewBox="0 0 76.388 125" enable-background="new 0 0 76.388 100" xml:space="preserve"><path fill="#010101" d="M76.388,60.283l-0.082-22.954c0,0,0.082-6.308-3.566-6.308c-4.062,0-4.495,5.864-4.495,5.864l-0.729,5.682
	c0,0.44-0.401,2.4-1.951,2.4c-1.325,0-1.973-0.933-2.116-2.4l-0.687-11.351c0-2.189-1.369-5.454-4.396-5.454
	c-3.229,0-4.305,3.675-4.305,5.454L53.08,42.958c0,0-0.098,2.152-1.903,2.005c-0.004,0-0.006,0.003-0.01,0.003
	c-1.322,0-1.998-1.073-1.998-2.4l-0.685-12.598c0-2.654-1.224-6.775-4.515-6.775c-3.309,0-4.481,4.121-4.481,6.775l-0.78,12.989
	c0,1.324-0.605,2.002-1.923,2.005l-0.009,0.004c-1.323,0-2.091-0.768-2.091-2.094L34.38,31.818L33.888,6.363
	C33.888,3.712,32.938,0,29.583,0c-3.652,0-4.266,3.671-4.654,6.17l-3.52,56.759l-5.259-13.252l-4.898-5.421
	c0,0-2.897-3.339-6.118-4.235c-1.58-0.44-3.618-0.476-4.806,1.077c-1.125,1.468,1.011,5.657,1.011,5.657l3.233,5.865
	c2.637,5.04,6.286,12.674,8.624,20.294l0.043-0.011c6.108,16.628,15.3,27.066,15.3,27.066s4.037,0.027,13.299,0.03l0,0h20.926
	C76.388,81.117,76.388,60.283,76.388,60.283L76.388,60.283z"/><text x="0" y="115" fill="#000000" font-size="5px" font-weight="bold" font-family="'Helvetica Neue', Helvetica, Arial-Unicode, Arial, Sans-serif">Created by Michele Zamparo</text><text x="0" y="120" fill="#000000" font-size="5px" font-weight="bold" font-family="'Helvetica Neue', Helvetica, Arial-Unicode, Arial, Sans-serif">from the Noun Project</text></svg>