<?xml version="1.0" encoding="UTF-8" standalone="no"?>
<svg
   xmlns:dc="http://purl.org/dc/elements/1.1/"
   xmlns:cc="http://creativecommons.org/ns#"
   xmlns:rdf="http://www.w3.org/1999/02/22-rdf-syntax-ns#"
   xmlns:svg="http://www.w3.org/2000/svg"
   xmlns="http://www.w3.org/2000/svg"
   xmlns:sodipodi="http://sodipodi.sourceforge.net/DTD/sodipodi-0.dtd"
   xmlns:inkscape="http://www.inkscape.org/namespaces/inkscape"
   version="1.1"
   x="0px"
   y="0px"
   viewBox="0 0 94 94"
   enable-background="new 0 0 100 100"
   xml:space="preserve"
   id="svg2"
   inkscape:version="0.91 r13725"
   sodipodi:docname="running_noun_168818_cc_.svg"
   width="94"
   height="94"><metadata
     id="metadata28"><rdf:RDF><cc:Work
         rdf:about=""><dc:format>image/svg+xml</dc:format><dc:type
           rdf:resource="http://purl.org/dc/dcmitype/StillImage" /><dc:title></dc:title></cc:Work></rdf:RDF></metadata><defs
     id="defs26" /><sodipodi:namedview
     pagecolor="#ffffff"
     bordercolor="#666666"
     borderopacity="1"
     objecttolerance="10"
     gridtolerance="10"
     guidetolerance="10"
     inkscape:pageopacity="0"
     inkscape:pageshadow="2"
     inkscape:window-width="1678"
     inkscape:window-height="1020"
     id="namedview24"
     showgrid="false"
     fit-margin-top="0"
     fit-margin-left="0"
     fit-margin-right="0"
     fit-margin-bottom="0"
     inkscape:zoom="1.888"
     inkscape:cx="-72.99539"
     inkscape:cy="18.561668"
     inkscape:window-x="0"
     inkscape:window-y="28"
     inkscape:window-maximized="1"
     inkscape:current-layer="svg2" /><g
     id="g4"
     transform="translate(-2.9995,-3.0004948)"><g
       id="g6"><path
         d="m 84.88,36.3 c 4.414,0 7.995,-3.581 7.995,-7.995 0,-4.418 -3.581,-7.999 -7.995,-7.999 -4.418,0 -7.999,3.581 -7.999,7.999 0,4.414 3.581,7.995 7.999,7.995 z"
         id="path8"
         inkscape:connector-curvature="0" /><path
         d="m 92.875,46.715 -11.717,0 -3.539,-8.513 C 77.47,37.84 77.265,37.501 77.012,37.203 l -0.237,-0.28 -7.917,-9.396 -6.983,-8.285 C 61.147,18.378 60.076,17.88 58.945,17.88 l -15.136,0 c -2.117,0 -3.833,1.715 -3.833,3.834 0,2.115 1.716,3.831 3.833,3.831 l 13.352,0 4.233,5.025 -16.735,15.817 c -0.389,0.264 -0.756,0.567 -1.091,0.92 -2.476,2.617 -2.363,6.749 0.253,9.224 L 56.797,68.81 39.956,72.847 c -2.086,0.499 -3.372,2.597 -2.871,4.683 0.5,2.086 2.595,3.372 4.682,2.87 L 65.55,74.702 c 0.444,-0.108 0.888,-0.298 1.285,-0.571 1.762,-1.208 2.211,-3.616 1.004,-5.378 l -0.241,-0.352 -9.823,-14.328 14.042,-9.858 3.244,7.806 c 0.596,1.431 1.99,2.362 3.541,2.362 l 14.273,0 c 2.117,0 3.832,-1.717 3.832,-3.833 0,-2.116 -1.715,-3.835 -3.832,-3.835 z"
         id="path10"
         inkscape:connector-curvature="0" /><path
         d="M 40.578,59.957 C 38.559,58.045 37.352,55.508 37.119,52.759 L 11.484,74.757 c -1.676,1.444 -1.956,3.972 -0.585,5.74 1.416,1.829 4.045,2.163 5.873,0.747 l 25.47,-19.711 -1.664,-1.576 z"
         id="path12"
         inkscape:connector-curvature="0" /></g><path
       d="m 46.06,34.787 c 0,1.338 -1.083,2.422 -2.422,2.422 l -19.754,0 c -1.339,0 -2.423,-1.084 -2.423,-2.422 l 0,0 c 0,-1.34 1.084,-2.424 2.423,-2.424 l 19.753,0 c 1.34,0 2.423,1.084 2.423,2.424 l 0,0 z"
       id="path14"
       inkscape:connector-curvature="0" /><path
       d="m 36.976,43.871 c 0,1.338 -1.084,2.422 -2.423,2.422 l -19.753,0 c -1.339,0 -2.423,-1.084 -2.423,-2.422 l 0,0 c 0,-1.34 1.084,-2.423 2.423,-2.423 l 19.753,0 c 1.339,-10e-4 2.423,1.083 2.423,2.423 l 0,0 z"
       id="path16"
       inkscape:connector-curvature="0" /><path
       d="m 27.892,52.956 c 0,1.338 -1.084,2.422 -2.423,2.422 l -19.754,0 c -1.338,0 -2.423,-1.084 -2.423,-2.422 l 0,0 c 0,-1.341 1.084,-2.425 2.423,-2.425 l 19.753,0 c 1.339,0 2.424,1.084 2.424,2.425 l 0,0 z"
       id="path18"
       inkscape:connector-curvature="0" /></g></svg>